<svg width="125" height="149" viewBox="0 0 125 149" fill="none" xmlns="http://www.w3.org/2000/svg">
<path fill-rule="evenodd" clip-rule="evenodd" d="M69.176 95.7012C69.3907 97.4639 68.9523 99.1469 67.9076 100.57L67.5678 101.033L68.2146 101.211C69.3918 101.535 70.7009 101.693 72.2168 101.693C73.7768 101.693 75.3992 101.522 76.703 101.384L77.5378 101.296L77.1277 100.725C76.7979 100.266 76.737 99.7103 76.6724 99.1213C76.6549 98.9634 76.6369 98.7998 76.6134 98.6378C75.3783 89.9413 73.8168 81.1314 72.3068 72.6114C71.9095 70.3694 71.4986 68.051 71.1001 65.7707L69.9565 65.8051C69.6492 70.0264 69.3508 74.3186 69.0621 78.4697C68.9351 80.2951 68.8081 82.1205 68.68 83.9456C68.224 88.5602 68.3812 92.2965 69.176 95.7012ZM69.6424 147.851C67.9633 147.851 66.2811 147.714 64.6423 147.442C59.5145 146.594 54.8557 144.593 50.8916 142.785C50.6892 142.695 50.4838 142.604 50.2731 142.511C48.721 141.828 46.7897 140.977 45.5793 139.939C44.2512 138.8 44.0226 137.665 44.8599 136.367L44.9925 136.162L44.854 135.959C43.9871 134.688 44.0517 133.115 45.0108 132.135L45.8172 131.311L44.4917 131.421C43.155 131.533 41.8082 131.685 40.5052 131.831C39.0598 131.993 37.5652 132.161 36.0929 132.274L35.684 132.305L35.5898 132.615C35.5376 132.788 35.4729 132.893 35.0188 132.893C34.6248 132.893 34.0956 132.802 33.5357 132.706C32.8403 132.587 32.0526 132.452 31.2926 132.452C30.9583 132.452 30.6581 132.477 30.3735 132.529L30.208 132.559L30.0904 132.653C30.0153 132.714 29.8868 132.752 29.7561 132.752C29.6571 132.752 29.5653 132.73 29.5036 132.692L29.318 132.578L29.0824 132.598C24.9786 132.953 21.4398 133.576 18.2644 134.502L18.25 134.507L18.1812 134.53C17.033 134.921 15.8458 135.324 14.7646 135.324C13.9743 135.324 13.3325 135.112 12.7447 134.658L12.5786 134.529L12.3443 134.527C9.96702 134.51 8.88075 132.327 8.73058 130.863L8.71168 130.679L8.53047 130.559C4.38737 127.82 1.94146 124.059 1.05273 119.06C0.243294 114.507 0.864799 109.706 1.57949 105.61C3.23272 94.9961 4.95703 85.4808 9.34017 76.4564L9.54495 76.0344L8.99926 75.88C7.10618 75.344 5.65936 74.7049 4.57605 73.9256L4.50105 73.8713L4.4066 73.841C2.85405 73.3386 2.09369 71.4837 1.89758 70.9274L1.88189 70.8826L1.85448 70.8411C1.53769 70.3626 1.46464 69.6967 1.65411 69.0145L1.67439 68.9409L1.66262 68.8663C1.56033 68.2184 1.89989 67.5412 2.2594 66.8241C2.42366 66.4964 2.5934 66.1578 2.71747 65.8205C3.14391 64.8566 3.5699 63.876 3.98199 62.9272C4.90654 60.7986 5.86242 58.5976 6.88078 56.4566L7.02005 56.1637L6.71324 55.9619C6.18944 55.6174 6.36437 55.2117 7.11966 54.242C7.29811 54.0127 7.46692 53.7958 7.59524 53.5825C8.56341 52.2645 9.60101 50.9999 10.6798 49.8221L10.702 49.798L10.7197 49.772C16.2553 41.6286 26.0744 37.144 38.3681 37.144L38.6187 37.1442L38.7573 37.0785C41.0613 35.9871 42.7061 34.1146 43.7858 31.3537L43.8202 31.2659L43.8067 31.1742C43.7698 30.9199 43.7294 30.5864 43.7432 30.2626C43.7784 29.4428 44.1862 28.7112 44.8626 28.2554C46.1451 27.3905 48.0924 27.3181 49.977 27.3181L50.2477 27.3184C52.6574 27.324 54.3586 27.6534 55.6015 28.3555C57.0454 29.1714 57.8435 30.4886 58.0415 32.382C58.1005 32.9486 58.0986 33.5356 58.0967 34.1031L58.0964 34.2616L58.1206 34.3244C58.2936 34.7746 58.4967 35.2069 58.7234 35.61L58.9569 36.0243L59.4876 35.8374C59.8308 35.7166 60.2659 35.6545 60.8179 35.6474C60.977 35.6447 61.1324 35.6433 61.2889 35.6433C62.571 35.6433 63.942 35.7355 65.2686 35.8245C66.2677 35.8917 67.3011 35.9612 68.3013 35.9921L68.3151 35.9924C68.3151 35.9924 68.4533 35.9918 68.5153 35.9918C70.9463 35.9918 72.7087 36.293 74.0614 36.9398C75.5176 37.6357 76.5649 38.7531 77.357 40.4559C81.6046 50.2164 83.3506 60.7294 84.8908 70.0049C85.7647 74.8552 86.0303 79.8278 86.2872 84.6366C86.5587 89.7123 86.8392 94.9608 87.8323 100.091L87.9111 100.497L88.4385 100.47C90.7593 100.352 93.2675 100.098 95.9233 99.8291C99.958 99.4201 104.13 98.9975 108.163 98.9975C113.802 98.9975 118.078 99.8715 121.232 101.669C123.431 103.301 124.569 105.512 124.522 108.062C124.456 111.666 122.036 115.65 118.357 118.212L118.344 118.222C113.693 121.683 105.205 124.684 93.1137 127.143C81.9956 129.404 70.4951 130.633 64.6289 131.164L63.1772 131.295L64.3555 131.967C64.8324 132.238 65.2679 132.477 65.6862 132.698L65.9558 132.84L66.2516 132.733C67.0946 132.429 67.6298 132.365 67.9308 132.365C68.1978 132.365 68.5198 132.41 68.5373 132.628C68.5489 132.77 68.4204 132.982 68.1485 133.009L66.7054 133.151L67.8837 133.813C68.6707 134.255 69.8449 134.787 71.2047 135.405C75.6532 137.423 82.3758 140.474 81.2195 143.154L81.1437 143.33L81.2509 143.496C81.5616 143.975 81.5881 144.421 81.3319 144.857C80.7829 145.792 79.066 146.502 77.6076 146.79L77.583 146.795L77.5583 146.802C75.0209 147.498 72.3576 147.851 69.6424 147.851Z" fill="white"/>
<path fill-rule="evenodd" clip-rule="evenodd" d="M64.7607 130.639C64.9363 130.499 65.0098 130.314 64.8463 130.098C64.2128 129.461 62.8997 129.897 62.0825 130.044C61.774 129.842 61.4678 129.639 61.1727 129.425C61.2751 128.924 60.5106 128.591 60.1965 128.204C59.888 127.92 59.5978 127.596 59.228 127.358C58.3268 126.804 57.0775 127.179 56.0314 127.153C55.2258 126.346 54.3963 125.565 53.63 124.731C54.5132 123.561 54.5756 122.192 54.2824 120.889C67.83 116.84 79.5564 109.173 94.2087 107.401C94.7125 107.335 94.9949 106.853 94.8694 106.499C93.8472 104.578 79.1598 109.535 76.9645 110.433C70.4891 112.875 64.4235 115.92 58.1304 118.606C56.818 119.155 55.3745 119.45 53.9396 119.735C51.7346 114.035 48.0043 108.809 45.1442 103.313C45.3298 103.06 45.4878 102.794 45.6222 102.52C45.5274 105.543 49.2592 105.5 49.7746 102.633C49.562 104.128 50.9969 107.329 53.0679 105.228C53.5534 104.701 53.7259 104.025 53.8081 103.343C53.9146 103.815 54.0352 104.284 54.1693 104.751C54.7007 105.677 56.1521 104.551 56.4893 104.068C56.6839 104.04 56.8658 103.971 56.9991 103.885C60.6611 104.286 64.9744 104.263 67.6615 101.986C72.2191 103.363 77.2633 102.129 81.8727 101.579C91.2526 100.729 100.67 99.4347 110.133 99.5337C114.359 99.727 119.344 100.264 122.016 103.104C125.445 107.198 123.507 112.727 119.725 116.27C110.628 125.343 79.4014 129.288 64.7607 130.639ZM65.0166 133.907C65.182 133.872 65.349 133.84 65.5148 133.81C68.1698 135.551 80.6754 140.073 79.7241 142.774C79.388 143.11 78.5831 143.186 78.0745 143.295C77.1886 143.483 76.2937 143.647 75.3907 143.776C72.4708 144.195 69.4468 144.268 66.531 143.79C65.458 143.662 64.4896 143.302 63.5126 142.953C60.3556 141.859 56.8781 140.65 53.7364 139.565C49.7447 138.319 42.7435 135.862 45.623 131.718C48.3512 134.135 51.8137 133.923 53.5583 130.919C54.1596 130.007 54.6847 128.778 56.0975 128.409C56.843 128.013 57.7957 127.93 58.4187 128.372C58.4635 128.317 58.5039 128.24 58.5259 128.172C59.228 128.959 59.8334 129.788 60.6562 130.507C60.3735 130.519 57.4327 132.233 58.3007 132.234C59.3449 131.81 60.3821 131.457 61.5096 131.229C62.3268 131.877 63.2254 132.479 64.1564 133.035C63.2523 133.506 62.4399 134.082 61.7864 134.707C61.73 134.762 61.799 134.833 61.8831 134.803C62.8978 134.448 63.9409 134.135 65.0166 133.907ZM78.4771 145.586C68.3204 149.18 57.5679 145.178 48.9066 140.912C46.9077 140.033 44.2781 138.786 44.6826 136.717C46.1548 138.413 48.582 139.379 50.9118 140.217C54.8255 141.611 58.7653 142.96 62.689 144.336C63.0595 145.304 64.8317 145.342 65.9028 145.556C70.6703 146.285 75.7948 145.923 80.2817 144.471C80.0222 145.076 79.1725 145.354 78.4771 145.586ZM37.9543 131.593C37.7037 131.619 37.4524 131.642 37.2018 131.664C37.2276 131.403 37.0274 131.141 36.7054 131.06C36.85 130.505 36.9038 129.932 36.8261 129.37C37.2459 130.224 38.6001 129.964 39.4602 129.718C40.6893 129.455 41.9106 129.172 43.1251 128.87C43.6043 129.571 44.1119 130.262 44.7356 130.896C42.4652 131.055 40.2161 131.371 37.9543 131.593ZM36.9549 128.907C36.8948 129.008 36.8085 129.114 36.8067 129.234C36.7454 128.819 36.6255 128.409 36.4436 128.015C36.6139 128.313 36.7846 128.61 36.9549 128.907ZM35.5223 126.68C34.4052 125.533 32.341 124.596 30.4329 124.915C30.3104 124.936 30.3074 125.092 30.4329 125.111C32.9961 125.385 35.2474 126.987 35.3363 129.058C35.5383 129.995 34.7107 130.915 34.9897 131.814C34.934 131.817 34.8784 131.819 34.8239 131.822C34.8037 131.883 34.7854 131.936 34.7615 131.983C35.0386 132.019 35.12 132.37 34.7932 132.433C34.5998 132.47 34.3977 132.489 34.1916 132.497C33.1466 132.275 32.0441 132.224 31.045 131.895C30.0564 131.551 30.3037 130.584 29.9548 129.915C29.699 129.142 29.4051 128.373 29.0342 127.632C29.0077 127.573 28.905 127.586 28.8964 127.646C28.635 129.125 28.6435 130.628 28.7067 132.118C28.3638 132.146 28.0228 132.176 27.6807 132.21C27.7028 131.793 26.1175 126.723 25.2822 128.024C25.7028 129.455 25.7535 130.949 25.7986 132.421C23.3186 132.743 20.875 133.223 18.4975 133.875C16.8221 134.275 14.8296 135.458 13.2032 134.389C11.9436 133.568 11.5192 132.137 11.638 130.919C13.276 123.711 26.2133 122.87 33.8506 123.402C34.5718 124.714 35.3068 126.02 36.0511 127.324C35.8969 127.099 35.7206 126.884 35.5223 126.68ZM9.4743 130.778C9.33447 129.142 9.68408 127.104 11.2234 125.885C14.7466 123.538 19.6797 122.8 24.0823 121.951C26.133 121.632 28.2118 121.42 30.2992 121.315C31.0394 121.269 31.9802 121.401 32.5031 120.924C32.7723 121.426 33.0454 121.928 33.3184 122.43C24.5535 121.525 6.26728 124.667 11.3882 134.125C10.3038 133.2 9.58534 132.073 9.4743 130.778ZM53.019 125.368C53.4223 126.162 53.9157 126.918 54.5603 127.609C53.8275 127.987 53.2296 128.545 52.8083 129.145C50.1069 134.711 47.2181 131.73 43.6286 128.742C46.6661 127.84 50.6896 127.163 53.019 125.368ZM8.0562 129.646C1.03194 124.18 -0.33114 115.074 2.26379 107.917C2.49463 105.263 3.67284 102.734 4.72844 100.221C8.0897 92.5987 12.5104 85.2653 17.8124 78.3415C24.3903 79.7647 30.9565 81.2259 37.5499 82.6022C38.4578 82.7578 39.3668 83.0645 40.299 83.1093C40.6322 83.2764 40.9668 83.4608 41.3134 83.6226C40.8085 85.5709 41.2742 87.5595 41.3918 89.5196C41.499 91.0624 41.2876 92.5734 41.0281 94.1C40.7379 96.3208 39.5431 103.544 41.9371 104.866C42.7483 105.175 43.4736 104.261 43.8232 104.513C44.1384 104.339 44.4323 104.114 44.6717 103.866C45.5961 106.221 47.1068 108.405 48.0397 110.762C49.2812 114.225 53.3581 119.831 52.4528 123.135C51.7525 125.175 48.6892 125.615 46.4782 126.282C43.9236 126.982 41.3403 127.624 38.7147 128.146C37.433 126.004 36.208 123.841 35.0057 121.67C29.5111 111.654 24.6451 101.428 20.2962 91.0809C20.2148 90.8514 19.2148 88.363 19.0318 89.0572C19.0164 88.9859 18.9025 88.8015 18.8594 88.9591C19.5969 91.3889 20.345 93.8177 21.1545 96.2339C19.1659 96.0147 17.0279 95.9292 15.2079 96.6968C15.114 96.7363 15.1829 96.8335 15.2758 96.8217C17.431 96.5274 19.5098 97.0834 21.5798 97.4823C24.487 105.277 28.2383 112.875 32.2088 120.377C30.9808 120.068 29.5552 120.41 28.2734 120.434C24.237 120.763 20.2464 121.458 16.433 122.54C11.6397 123.764 8.25064 125.361 8.0562 129.646ZM4.18903 72.7628C3.00899 71.7615 2.08164 70.4833 2.26087 69.127C2.96973 68.3821 3.20443 67.4109 3.61727 66.5499C5.23133 62.9484 6.72946 59.3191 8.48626 55.7564C12.223 56.6616 15.8993 57.7474 19.367 59.1735C20.005 59.4302 20.6362 59.6963 21.2598 59.9718C21.9131 60.2602 22.6258 60.7611 23.4093 60.6176C22.553 61.5726 20.7895 62.5665 20.4916 63.67C20.4274 64.0194 20.7416 64.3436 21.2244 64.2655C28.7814 68.4938 36.5852 72.6328 43.7283 77.3423C49.0773 80.6781 53.1837 83.3833 55.0182 88.7956C56.2548 92.3014 56.2585 95.9654 56.0766 99.5703C56.0411 100.271 56.04 100.988 55.9683 101.694C56.0755 102.221 55.8716 103.295 55.1186 103.314C55.1358 103.442 55.1896 103.561 55.2748 103.665C55.2509 103.69 55.2258 103.714 55.2001 103.738C55.1627 103.594 55.1261 103.451 55.0918 103.306C54.5054 101.261 54.427 98.8878 54.5248 96.7103C54.5659 96.086 53.3502 96.1007 53.2823 96.7103C53.0993 98.3566 52.9162 100.003 52.7336 101.648C52.514 102.715 52.8599 104.11 51.7775 104.921C50.6769 104.119 51.041 102.539 51.0944 101.506C51.1807 99.8193 51.2737 98.1335 51.3532 96.4472C51.3779 95.9127 50.2545 95.7751 50.1267 96.3184C49.766 97.8674 49.3749 99.4117 48.9544 100.952C48.7008 101.547 48.5264 104.218 47.2581 103.754C46.5025 103.348 47.0474 100.964 46.9477 100.175C46.9948 98.6129 47.0224 97.0527 47.1681 95.4943C47.2274 94.8655 45.9277 94.7317 45.7496 95.3458C45.4601 96.3394 45.1834 97.3329 44.9324 98.3333C44.3815 100.02 44.5817 102.306 42.5933 103.427C41.8142 99.0461 42.935 94.6961 43.0923 90.331C42.9982 88.9167 42.69 87.5165 42.4178 86.1192C42.1171 84.5741 41.9416 82.8922 42.646 81.4021C42.4533 80.7347 41.6966 82.5397 41.6256 82.69C41.0557 81.8055 39.6679 81.7371 38.5698 81.4616C36.1303 80.8393 33.631 80.3705 31.1627 79.8174C24.6162 78.3854 18.0623 76.9755 11.5065 75.5685C8.8876 74.9977 6.13078 74.3221 4.18903 72.7628ZM69.7429 96.0636C68.8395 92.2071 68.8645 88.2991 69.2503 84.4002C69.6746 78.3533 70.0865 72.3049 70.5272 66.2588C72.4402 77.2021 74.4797 88.1326 76.039 99.1109C76.1499 99.8749 76.1328 100.683 76.6224 101.365C73.9173 101.651 71.034 101.938 68.4036 101.214C69.5581 99.6416 69.9651 97.8518 69.7429 96.0636ZM83.4111 68.8995C85.4563 79.2711 84.2895 89.8248 86.2734 100.185C83.5213 100.428 80.7904 100.787 78.067 101.183C78.365 99.9029 77.7996 98.5817 77.7021 97.2929C76.2231 88.1005 74.5899 78.9143 72.426 69.8024C71.8953 67.6219 71.359 65.45 70.7439 63.2813C70.8368 61.968 70.9183 60.6548 70.972 59.3409C73.9748 57.8538 77.3611 56.8911 80.8632 56.4058C81.8092 60.559 82.7549 64.7092 83.4111 68.8995ZM59.7367 36.3076C59.6168 36.1462 59.5029 35.9812 59.3939 35.8141C59.7636 35.8253 60.1236 35.8356 60.4878 35.883C60.4713 36.3448 60.5042 36.81 60.5105 37.2753C60.3287 36.935 59.9724 36.6241 59.7367 36.3076ZM121.504 101.303C112.769 96.2999 98.4216 99.4878 88.3022 100.002C86.3732 90.0376 87.1604 79.9102 85.3625 69.9297C83.7061 59.9585 81.9601 49.8486 77.8007 40.2949C76.0842 36.6011 73.1147 35.5041 68.2259 35.5339C65.7448 35.4573 63.1212 35.1443 60.71 35.1888C60.1811 35.1956 59.6288 35.2507 59.1515 35.4187C58.4811 34.228 58.1169 32.9497 57.9332 31.6618C57.9216 31.5799 57.7894 31.5652 57.7502 31.6432C57.1832 32.7647 57.1227 33.9887 57.4312 35.1629C57.6542 36.0044 58.983 39.3155 60.5262 38.0199C60.6487 40.7366 59.8909 43.9808 56.5125 45.3904C50.6089 47.4179 42.4488 45.5719 39.0288 41.2688C38.3682 40.4087 37.7982 39.4938 37.0662 38.6681C42.1653 37.5311 45.0273 32.7184 43.8262 29.0538C43.0837 31.904 41.7302 35.0887 38.3596 36.6851C26.0848 36.6636 15.8795 41.0672 10.1129 49.5489C8.98456 50.7806 7.9414 52.0602 6.98544 53.3623C6.47094 54.2333 4.96425 55.445 6.24304 56.2862C4.76598 59.3913 3.45559 62.5397 2.07047 65.6695C1.69009 66.7123 0.820292 67.8061 0.993773 68.9025C0.806026 69.5781 0.814653 70.3769 1.24475 71.0267C1.65281 72.1847 2.56847 73.7422 4.08684 74.2337C5.37519 75.1604 7.0046 75.7989 8.70389 76.2798C4.172 85.6086 2.4469 95.6696 0.911384 105.526C-0.593546 114.149 -1.37031 124.638 8.05923 130.87C8.2422 132.653 9.58507 134.925 12.2405 134.945C14.0795 136.367 16.3211 135.587 18.3681 134.891C21.8233 133.883 25.447 133.325 29.0476 133.013C29.4338 133.251 30.062 133.211 30.406 132.934C32.5871 132.538 35.6104 134.142 36.0507 132.689C38.8634 132.474 41.6451 132.071 44.4547 131.837C43.2704 133.046 43.356 134.831 44.2478 136.138C41.9763 139.658 47.267 141.695 50.5017 143.139C54.8688 145.131 59.4293 147.021 64.4239 147.847C68.8148 148.574 73.4146 148.354 77.6513 147.192C79.8776 146.751 82.9868 145.304 81.6658 143.265C83.3405 139.385 71.5812 135.365 68.1224 133.422C69.536 133.284 69.5879 130.972 65.9107 132.3C65.4659 132.066 65.0293 131.824 64.5971 131.579C79.4713 130.232 107.878 126.527 118.643 118.518C124.557 114.4 127.969 106.07 121.504 101.303Z" fill="black"/>
<path fill-rule="evenodd" clip-rule="evenodd" d="M48.6167 5.50952C62.8115 4.95958 69.2174 12.8334 69.6316 16.3502C69.9191 18.7917 68.0884 21.6054 68.0884 23.787C68.0884 24.9005 69.8187 27.291 69.0131 28.9137C67.22 32.5262 63.4232 36.535 58.5852 36.535C53.7472 36.535 47.4507 37.5893 42.1047 31.5588C41.6032 30.9931 35.2585 27.7772 34.6423 24.7214C33.1069 17.1098 38.488 5.90194 48.6167 5.50952Z" fill="white"/>
<path fill-rule="evenodd" clip-rule="evenodd" d="M47.9474 0.609296C48.455 0.151843 49.3117 -0.0311394 50.0733 0.00427829C51.1791 0.0559315 52.1412 0.593797 53.2415 0.633635C54.3951 0.675712 55.5089 0.360635 56.6655 0.506726C57.3744 0.596743 58.0769 0.855717 58.531 1.29251C60.1045 0.937631 61.8128 1.40761 62.8148 2.43392C64.051 2.28268 65.3959 2.92759 65.7743 3.86601C67.3447 3.90588 68.8271 4.89969 69.0022 6.14514C69.6301 6.27573 70.175 6.61668 70.5092 7.06742C70.898 7.58978 70.9626 8.18891 70.8924 8.77769C71.6311 9.07503 72.0069 9.71396 72.1051 10.3898C72.7803 10.7868 73.0735 11.5002 72.9357 12.1739C73.4526 12.4033 73.7196 12.9375 73.717 13.4141C73.714 13.859 73.5643 14.2531 73.7749 14.6824C73.9628 15.0648 74.03 15.3835 73.9269 15.7841L73.9165 15.823C73.8982 15.8884 73.8828 15.9511 73.869 16.0127C74.0087 16.1094 74.1271 16.2305 74.216 16.3716C74.5398 16.8864 74.4916 17.4739 74.2444 17.9961C74.3527 18.3287 74.3389 18.6803 74.179 19C74.4785 19.3397 74.6358 19.7563 74.5895 20.1886C74.5376 20.6727 74.2571 21.1062 73.8317 21.4267C73.9448 22.0879 73.6039 22.8025 72.9865 23.268C73.0743 23.6638 72.9985 24.0786 72.7239 24.454C72.5279 24.7213 72.2642 24.9208 71.9598 25.0595C71.9699 25.2802 71.9318 25.5063 71.8388 25.7325C71.7092 26.0464 71.49 26.3357 71.2013 26.5688C71.3734 27.4362 70.7139 28.3989 69.5535 28.6423C69.456 28.6629 69.363 28.672 69.2741 28.6735C69.1587 29.508 68.907 30.3309 68.5171 31.1124C67.5263 33.1022 65.7246 34.8418 63.3747 35.9271C62.2124 36.4636 60.9071 36.8311 59.5742 36.9846C58.6154 37.0951 57.693 37.068 56.7301 36.9925C55.5219 36.8974 54.3081 36.755 53.1339 36.5102L52.9449 36.4704C52.4579 36.3679 51.9448 36.2491 51.5231 36.0423C51.051 35.8107 50.8056 35.4535 50.697 35.0331C50.6365 34.7988 50.8247 34.5472 51.15 34.5422H51.1709C51.2419 34.5433 51.3125 34.5413 51.3842 34.5378L51.4379 34.5348H51.4406C51.4443 34.5342 51.4462 34.5342 51.4499 34.5342C51.4816 34.5304 51.5126 34.523 51.5436 34.5195C51.9014 34.472 52.2144 34.5189 52.5505 34.607L52.5924 34.6182C53.1582 34.7717 53.7191 34.914 54.3036 35.0198C54.9076 35.1282 55.5193 35.2146 56.1326 35.2823L56.1934 35.2882L56.2121 35.2903L56.2214 35.2912C56.2233 35.2912 56.2252 35.2912 56.2271 35.2918L56.4078 35.3097C56.5505 35.323 56.6928 35.3348 56.8351 35.3466C57.0973 35.3672 57.3594 35.3834 57.6216 35.3952C62.1478 35.5959 65.9494 32.7884 67.0964 29.4225C67.5124 28.2044 67.5397 26.9893 67.4168 25.7732C67.3776 25.6848 67.3541 25.5867 67.3552 25.4788C67.3552 25.4229 67.3589 25.3675 67.3634 25.3115C67.211 24.1355 66.9459 22.9587 66.78 21.778C66.5862 20.399 66.4783 19.012 66.5179 17.6242C66.5373 16.9388 66.6303 16.2599 66.752 15.5812L66.7957 15.3373C66.2456 15.2527 65.7343 15.0471 65.3268 14.7496C64.4428 15.1517 63.2989 15.1873 62.4264 14.7627C61.4486 15.2458 60.0828 15.2896 59.0984 14.8173C58.503 15.152 57.7535 15.2964 57.0173 15.1693C56.6864 15.1122 56.357 14.9886 56.075 14.8175C55.8737 14.8455 55.6702 14.8564 55.4674 14.848L55.4256 14.8665C54.958 15.0605 54.4403 15.1882 53.9078 15.174C53.513 15.1635 53.1066 15.1022 52.7306 14.9862C52.3287 15.1773 51.8887 15.3077 51.4185 15.3545C50.7313 15.4228 49.9896 15.303 49.4182 14.9959C48.3739 15.4646 47.0895 15.5368 45.962 15.2219C45.7312 15.5299 45.4119 15.7956 45.0376 16.0004C45.1049 16.1892 45.1262 16.3908 45.103 16.5847C45.0653 16.9038 44.9637 17.1899 44.7975 17.4468C44.9727 17.7335 45.0253 18.0856 44.9275 18.4392C44.7878 18.9437 44.4154 19.3821 43.9333 19.7239C43.8907 20.5283 43.3305 21.2829 42.4188 21.7022C42.3729 21.7232 42.3269 21.7405 42.281 21.7562C42.2407 21.7995 42.1929 21.8378 42.1376 21.8699C41.558 22.2918 40.6407 22.2583 39.9139 22.0199C39.9001 22.0205 39.8859 22.0214 39.8717 22.0216C39.6121 22.0267 39.4355 21.9471 39.3302 21.8298C39.2245 21.8342 39.1195 21.8431 39.0138 21.8584C38.628 21.9153 38.2045 22.0246 37.8553 22.1663C36.9489 22.5335 36.5291 23.1829 36.4036 23.9634C36.2669 24.815 36.578 25.6825 37.4142 26.2588C37.8206 26.5393 38.3404 26.7149 38.8685 26.7886C39.4519 26.8705 40.0756 26.669 40.5066 27.0638C40.5929 27.1419 40.6519 27.2512 40.6048 27.3567C40.4588 27.6858 40.2183 27.8119 39.8418 27.8576C40.3856 28.3659 40.944 28.8574 41.5621 29.3141C42.2306 29.8091 42.9219 30.2888 43.5251 30.8348C44.163 31.4123 44.7389 32.0249 45.1385 32.7259C45.3671 33.1287 45.5508 33.5442 45.7484 33.9564L45.7839 34.0283C46.0042 34.4664 46.2974 34.889 45.9583 35.3466C45.8235 35.5266 45.5179 35.7008 45.2371 35.6719C44.4457 35.5923 44.1805 35.171 43.937 34.622C43.7536 34.2074 43.6132 33.7808 43.4156 33.37C43.3787 33.2937 43.3383 33.2186 43.2961 33.1437C42.8397 33.2439 42.3381 33.1644 41.9307 32.9593C41.4956 33.1113 41.0138 33.187 40.5481 33.1806C39.9247 33.172 39.3552 33.0356 38.8656 32.7896C38.8267 32.7813 38.7875 32.7736 38.7487 32.7648C38.0039 32.9896 37.1315 32.9493 36.4574 32.5851C36.0204 32.3493 35.722 32.0344 35.5524 31.6837C34.9881 31.6755 34.4298 31.5178 34.0257 31.2025C33.6544 30.9129 33.4374 30.5393 33.3728 30.1512C32.8873 30.0755 32.432 29.8904 32.0746 29.579C31.7766 29.3185 31.5954 28.9873 31.5342 28.6432C30.9426 28.51 30.4093 28.2059 30.118 27.7816C29.8468 27.3867 29.8076 26.9583 29.9402 26.5685L29.9058 26.5296C29.2963 26.2782 28.8313 25.8669 28.7835 25.2797C28.7701 25.1123 28.7932 24.9449 28.8507 24.7867C28.8298 24.6096 28.8433 24.4328 28.9019 24.2616C28.0825 23.6337 27.7856 22.6251 28.2304 21.7912C27.4298 21.1126 27.2182 20.0389 27.8054 19.2333C27.4027 18.8497 27.1957 18.3605 27.2304 17.8381C27.2734 17.186 27.6526 16.6162 28.1068 16.0888C27.7699 15.795 27.5899 15.3856 27.6033 14.9901C27.622 14.4168 28.0085 13.9232 28.4929 13.5145C28.0705 12.5051 28.5423 11.4102 29.579 10.7713C29.3695 10.499 29.2918 10.1618 29.3602 9.82021C29.4801 9.22333 30.0485 8.81679 30.6617 8.49508C30.5336 8.1661 30.5672 7.81113 30.7715 7.47101C31.0438 7.01724 31.5581 6.72951 32.0948 6.486C32.2333 5.47964 33.6604 4.62006 34.8574 5.13951C34.5605 4.39062 35.4157 3.58196 36.3991 3.49636C36.8805 2.34685 38.541 1.62232 40.0338 1.90784C40.7968 1.08593 42.2175 0.769471 43.4238 1.12209C44.7501 0.321535 46.3956 0.202759 47.9474 0.609296ZM38.5007 23.1799C39.4325 23.1402 40.1313 23.7392 40.622 24.2873C41.0825 24.8017 39.9008 25.3448 39.5561 24.7782C39.4325 24.576 39.2921 24.3618 39.1038 24.1847C39.0721 24.2198 39.0441 24.2557 39.0164 24.2929L38.9884 24.3303C38.9679 24.3574 38.9462 24.3857 38.9287 24.4143C38.9305 24.4196 38.9025 24.4873 38.9014 24.4903C38.8245 24.6741 38.6572 24.792 38.4286 24.8556C38.1335 24.9367 37.8545 24.7619 37.7597 24.5566C37.6092 24.2292 37.9591 23.9437 38.3236 23.8137C37.9658 23.7681 37.6137 23.8638 37.3552 24.0807C37.3197 24.1111 37.2596 24.0866 37.2577 24.0492C37.2279 23.5347 37.9106 23.205 38.5007 23.1799Z" fill="black"/>
<path fill-rule="evenodd" clip-rule="evenodd" d="M61.2269 30.8526C60.537 31.0099 59.7964 31.024 59.0932 30.8614C58.4553 30.7141 57.8002 30.3894 57.3307 29.96C56.9139 29.5785 56.6439 29.115 56.6544 28.62C56.6555 28.5637 56.6812 28.5165 56.7208 28.4797C56.763 28.4405 56.8224 28.4134 56.8859 28.4016C56.9513 28.3895 57.0204 28.3937 57.0794 28.4149C57.1328 28.4337 57.1784 28.4661 57.2067 28.5136C57.2788 28.5881 57.3509 28.6618 57.423 28.7334C58.003 29.2977 58.5647 29.7193 59.4371 29.8705C59.9103 29.9527 60.3832 29.9161 60.8168 29.7909C61.281 29.6568 61.7008 29.4211 62.0295 29.1197C62.1781 28.9833 62.3536 28.9276 62.5251 28.9267C62.7196 28.9258 62.9116 28.9968 63.0565 29.1106C63.1988 29.2225 63.2941 29.3743 63.3026 29.5334C63.3105 29.6728 63.2526 29.8186 63.0991 29.9486C62.5927 30.377 61.9368 30.6905 61.2269 30.8526ZM61.2056 23.7849C61.9129 24.1235 62.9904 24.9132 62.2296 25.753C61.334 26.4931 60.0448 25.6442 59.4095 25.2606C58.8202 24.963 58.1584 25.7282 58.7048 26.0756C63.2963 28.7534 65.1592 23.8733 61.5634 23.3866C61.1675 23.3329 61.0203 23.68 61.2056 23.7849ZM54.5901 22.2946C54.3627 22.1802 54.0953 22.1408 53.7991 22.2471C53.5676 22.3299 53.1612 22.6066 52.8789 22.9702C52.6854 23.2189 52.5483 23.5106 52.5767 23.8147C52.5835 23.8851 52.5502 23.9373 52.4979 23.9759C52.4568 24.0062 52.3971 24.0286 52.3272 24.0354C52.2679 24.0413 52.2014 24.036 52.1472 24.0227C52.0445 23.9974 51.99 23.9449 51.9694 23.9019C51.7715 23.4879 51.857 23.0259 52.0785 22.609C52.378 22.0465 52.9214 21.575 53.2777 21.4233C53.8873 21.1631 54.6062 21.1513 55.2165 21.4162C55.736 21.6416 56.0609 22.0058 56.384 22.3768C56.4527 22.4558 56.521 22.5341 56.5912 22.611C56.7324 22.7651 56.7466 22.9181 56.6921 23.0492C56.6312 23.1945 56.477 23.317 56.2839 23.3813C56.1053 23.4405 55.8981 23.4487 55.7147 23.3877C55.5597 23.3365 55.4178 23.236 55.3278 23.066C55.1761 22.7793 54.924 22.4628 54.5901 22.2946ZM66.134 22.9325C65.9782 22.9964 65.8565 23.0156 65.6839 22.9749C65.5883 22.9522 65.4942 22.9089 65.4203 22.8509C65.3471 22.7931 65.294 22.7212 65.2735 22.6417C65.2231 22.4454 65.0867 22.2616 64.8922 22.1416C64.726 22.0391 64.5164 21.9849 64.2838 22.0155C64.0328 22.0485 63.7934 22.1752 63.6287 22.3249C63.5738 22.375 63.5305 22.4316 63.4871 22.4882C63.4061 22.5936 63.3273 22.6918 63.2152 22.7693C63.1727 22.7987 63.1088 22.8194 63.0468 22.8194C63.0218 22.8194 62.9964 22.8161 62.9717 22.8102C62.7219 22.6125 62.6741 22.4625 62.6819 22.314C62.6905 22.1581 62.7686 22.0002 62.8944 21.8529C63.1902 21.5075 63.7516 21.2244 64.1306 21.1601C64.6494 21.0723 65.1648 21.1778 65.5779 21.4062C66.0033 21.641 66.3181 22.0058 66.4163 22.4169C66.4399 22.5159 66.4298 22.6228 66.382 22.7153C66.3353 22.8058 66.2539 22.8833 66.134 22.9325ZM55.7345 18.6117C55.423 18.8506 55.0544 18.8878 54.6817 18.9208C54.4744 18.939 54.3089 18.9541 54.1461 18.9829C53.699 19.0625 53.2568 19.1824 52.8535 19.3548C52.4318 19.5351 51.9721 19.7529 51.6415 20.0313C51.5631 20.0979 51.4888 20.1675 51.4145 20.237C51.3469 20.3006 51.2819 20.3619 51.2132 20.4209C51.134 20.4886 51.0593 20.5599 50.9846 20.6307C50.9387 20.6905 50.9297 20.7052 50.9204 20.7205C50.9062 20.7435 50.8901 20.7691 50.8714 20.7968C50.846 20.8348 50.8162 20.8761 50.7852 20.9138C50.7332 20.9822 50.7056 21.0013 50.6813 21.0096C50.6414 21.0237 50.6036 21.0305 50.567 21.027C50.5327 21.0234 50.5002 21.0102 50.4681 20.989C50.3082 20.8826 50.2612 20.7079 50.266 20.5225C50.2731 20.2411 50.405 19.9297 50.5263 19.7384C50.8087 19.2935 51.2001 18.8309 51.671 18.4988C52.2081 18.1199 52.796 17.8329 53.4708 17.6352C53.8902 17.5123 54.3761 17.3995 54.8333 17.4139C55.1623 17.4239 55.476 17.5011 55.7356 17.6935C55.8947 17.8117 55.9713 17.9796 55.9713 18.1473C55.9713 18.3185 55.8917 18.4909 55.7345 18.6117ZM66.7674 20.8004C66.7476 20.826 66.7203 20.8437 66.6897 20.8543C66.658 20.8652 66.6221 20.8684 66.5878 20.864C66.5538 20.8593 66.5213 20.8472 66.4955 20.8287C66.4709 20.8107 66.4522 20.7871 66.444 20.7582C66.2371 20.0428 65.8356 19.5107 64.9788 19.1674C64.5575 18.9986 64.0728 18.8913 63.6138 18.8058C63.4804 18.7808 63.3396 18.7649 63.1977 18.7484C62.7533 18.6974 62.3055 18.6388 62.0153 18.3556C61.8409 18.185 61.7673 17.967 61.8087 17.7675C61.8479 17.5795 61.9873 17.4074 62.2405 17.304C62.8709 17.0473 63.6545 17.2993 64.2912 17.5141C64.3387 17.53 64.385 17.5456 64.4302 17.5606C65.0528 17.7678 65.6208 18.0409 66.0877 18.4319C66.4582 18.7419 66.8014 19.2004 66.9396 19.6718C67.0546 20.0643 67.0273 20.4648 66.7674 20.8004Z" fill="black"/>
</svg>